<?xml version="1.0" standalone="no"?>
<!DOCTYPE svg PUBLIC "-//W3C//DTD SVG 20010904//EN"
 "http://www.w3.org/TR/2001/REC-SVG-20010904/DTD/svg10.dtd">
<svg version="1.0" xmlns="http://www.w3.org/2000/svg"
 width="260.000000pt" height="260.000000pt" viewBox="0 0 260.000000 260.000000"
 preserveAspectRatio="xMidYMid meet">
<metadata>
Created by potrace 1.11, written by Peter Selinger 2001-2013
</metadata>
<g transform="translate(0.000000,260.000000) scale(0.100000,-0.100000)"
fill="#000000" stroke="none">
<path d="M2057 2553 c-15 -14 -6 -49 17 -63 25 -16 120 -102 131 -119 3 -6
-17 -22 -44 -36 -28 -13 -75 -45 -106 -71 l-56 -45 -52 33 c-28 18 -81 56
-118 84 -90 70 -142 99 -162 91 -28 -11 -20 -45 15 -63 17 -9 59 -38 93 -65
34 -26 102 -74 152 -106 50 -32 123 -80 164 -107 40 -26 80 -51 88 -54 9 -3
36 -18 60 -34 25 -15 58 -28 74 -28 63 0 8 66 -91 110 -35 15 -162 99 -162
106 0 12 54 53 110 84 30 17 63 36 72 42 14 10 25 6 64 -21 25 -19 67 -45 93
-58 25 -13 61 -35 80 -48 45 -33 81 -33 81 -2 0 26 -44 62 -118 97 -64 30
-133 82 -143 108 -5 12 -16 22 -25 22 -8 0 -40 23 -69 51 -56 53 -117 99 -133
99 -5 0 -12 -3 -15 -7z"/>
<path d="M467 2533 c-14 -14 -6 -32 20 -45 19 -9 31 -26 39 -54 19 -66 33 -86
57 -82 15 2 21 9 20 23 -3 37 -36 120 -56 143 -19 21 -66 30 -80 15z"/>
<path d="M235 2509 c-4 -5 -2 -22 4 -37 6 -15 17 -65 25 -111 16 -90 25 -107
52 -97 13 5 15 14 11 44 -20 124 -30 179 -38 195 -11 19 -44 23 -54 6z"/>
<path d="M403 2268 c-46 -45 -74 -83 -98 -133 -43 -90 -84 -226 -87 -290 -3
-44 -1 -50 16 -50 21 0 22 4 51 125 33 136 81 235 144 296 30 30 65 57 77 60
26 7 72 -16 122 -60 20 -18 52 -43 71 -56 25 -17 47 -50 83 -127 37 -79 53
-103 66 -101 31 6 23 51 -25 148 -47 93 -50 97 -151 173 -97 72 -106 77 -153
77 -49 0 -54 -3 -116 -62z"/>
<path d="M1334 2265 c-94 -113 -117 -135 -141 -135 -16 0 -27 -8 -33 -26 -6
-14 -35 -50 -65 -80 -37 -37 -55 -63 -55 -80 0 -45 38 -29 112 47 l68 71 83
-32 c83 -33 150 -67 242 -120 87 -51 138 -76 215 -105 41 -16 100 -44 130 -63
154 -98 246 -130 238 -81 -2 14 -27 33 -83 63 -44 23 -99 54 -121 70 -23 15
-83 43 -134 62 -78 29 -145 62 -221 109 -40 25 -179 94 -231 114 l-58 23 38
45 c20 25 50 59 65 76 18 20 27 40 25 56 -5 42 -32 36 -74 -14z"/>
<path d="M790 1779 c-30 -33 -71 -69 -91 -79 -39 -20 -89 -73 -89 -94 0 -7 -9
-21 -20 -31 -33 -30 -22 -58 25 -66 22 -4 72 -19 110 -34 39 -14 112 -42 163
-61 96 -35 156 -63 277 -130 189 -104 244 -140 245 -156 0 -13 8 -18 28 -18
19 1 47 20 101 70 41 39 77 70 81 70 4 0 29 27 55 61 36 46 48 70 49 97 1 30
-3 37 -18 37 -10 0 -24 -9 -30 -20 -44 -78 -190 -225 -224 -225 -9 0 -64 27
-122 61 -58 34 -150 85 -205 113 l-100 53 63 44 c35 24 69 49 75 55 7 6 24 14
39 17 15 4 54 33 88 64 53 48 61 60 58 87 -4 43 -30 44 -58 4 -28 -40 -73 -77
-165 -130 -38 -23 -88 -56 -109 -75 -24 -20 -51 -33 -67 -33 -15 0 -69 17
-120 39 -52 21 -111 44 -131 50 -21 7 -38 14 -38 16 0 21 30 57 64 75 22 13
67 51 99 84 44 46 57 66 55 85 -5 43 -30 34 -88 -30z"/>
<path d="M234 1200 c-110 -70 -154 -151 -154 -283 l0 -67 58 0 c76 0 158 15
257 47 115 37 160 63 245 137 119 105 168 108 260 16 91 -91 100 -150 42 -275
-28 -58 -38 -69 -107 -114 -89 -59 -83 -56 -233 -85 -105 -20 -117 -24 -120
-44 -3 -19 1 -22 35 -22 55 0 252 39 288 57 16 9 58 35 92 59 83 59 126 142
132 253 5 101 -9 140 -74 206 -60 62 -105 85 -163 85 -75 0 -102 -12 -180 -79
-90 -78 -148 -111 -256 -146 -69 -22 -177 -45 -213 -45 -18 0 -16 33 4 99 21
66 81 132 156 171 36 19 47 30 45 45 -5 34 -47 29 -114 -15z"/>
<path d="M1764 1095 c-4 -8 2 -27 12 -43 10 -15 30 -79 44 -142 22 -99 29
-115 45 -115 18 0 20 6 18 52 -3 78 -40 213 -65 240 -25 27 -46 30 -54 8z"/>
<path d="M1893 1094 c-4 -11 3 -23 21 -37 30 -22 54 -64 91 -163 29 -78 41
-94 66 -94 31 0 31 18 1 83 -16 34 -37 82 -46 107 -32 91 -113 154 -133 104z"/>
<path d="M2252 913 c-6 -10 -15 -65 -22 -122 -11 -101 -40 -199 -77 -262 -13
-23 -44 -43 -122 -80 -104 -49 -161 -60 -200 -40 -9 5 -43 49 -76 98 -71 107
-103 143 -127 143 -28 0 -35 -30 -10 -50 11 -9 45 -55 76 -101 30 -46 68 -99
85 -116 29 -32 33 -33 105 -33 68 0 84 4 158 41 46 22 94 46 108 54 29 16 82
106 104 179 17 58 48 285 40 297 -9 15 -33 10 -42 -8z"/>
</g>
</svg>
